<svg width="23" height="18" viewBox="0 0 23 18" fill="none" xmlns="http://www.w3.org/2000/svg">
<path d="M2.15625 0.5C1.2618 0.5 0.5 1.26369 0.5 2.25C0.5 2.80854 0.75171 3.32735 1.17094 3.65647C1.17102 3.65653 1.1711 3.6566 1.17118 3.65666L10.9445 11.3054C10.9447 11.3055 10.9448 11.3056 10.945 11.3057C11.2763 11.5632 11.7237 11.5632 12.055 11.3057C12.0552 11.3056 12.0553 11.3055 12.0555 11.3054L21.8288 3.65666L2.15625 0.5ZM2.15625 0.5H20.8438C21.7382 0.5 22.5 1.26369 22.5 2.25C22.5 2.80842 22.2484 3.32712 21.8293 3.65625L2.15625 0.5ZM0.5 15V6.27622L9.46685 13.2938C10.6721 14.237 12.3279 14.237 13.5332 13.2938L22.5 6.27622V15C22.5 16.3988 21.4148 17.5 20.125 17.5H2.875C1.58524 17.5 0.5 16.3988 0.5 15Z" stroke="black"/>
</svg>
