<svg width="20" height="20" viewBox="0 0 20 20" fill="none" xmlns="http://www.w3.org/2000/svg">
<path d="M13.8805 12.3266L13.376 13.0177L13.9809 13.623L18.9265 18.5715L18.9267 18.5717C19.0244 18.6694 19.0244 18.829 18.9267 18.9267C18.829 19.0244 18.6691 19.0244 18.5713 18.9268C18.5713 18.9267 18.5712 18.9267 18.5712 18.9267L13.6259 13.9785L13.0196 13.3718L12.3277 13.8786C11.1504 14.7409 9.69991 15.2476 8.1254 15.2476C4.189 15.2476 1 12.059 1 8.12381C1 4.18865 4.189 1 8.1254 1C12.0618 1 15.2508 4.18865 15.2508 8.12381C15.2508 9.69647 14.7409 11.1475 13.8805 12.3266ZM8.1254 14.748C11.7831 14.748 14.7507 11.7813 14.7507 8.12381C14.7507 4.46633 11.7831 1.49963 8.1254 1.49963C4.46768 1.49963 1.50012 4.46633 1.50012 8.12381C1.50012 11.7813 4.46768 14.748 8.1254 14.748Z" stroke="white" stroke-width="2"/>
</svg>
