<svg width="20" height="20" viewBox="0 0 20 20" fill="none" xmlns="http://www.w3.org/2000/svg">
<path d="M12.8571 7.25H13.2039C12.4658 7.50892 11.8571 8.15629 11.8571 9.0625C11.8571 10.2556 12.9121 11 13.9286 11C14.945 11 16 10.2556 16 9.0625C16 8.15629 15.3913 7.50892 14.6532 7.25H15H17.8571C18.6175 7.25 19 7.76338 19 8.125V16.25C19 17.6468 17.6577 19 15.7143 19H4.28571C2.34232 19 1 17.6468 1 16.25V8.125C1 7.76338 1.3825 7.25 2.14286 7.25H5H5.34676C4.60866 7.50892 4 8.15629 4 9.0625C4 10.2556 5.055 11 6.07143 11C7.08786 11 8.14286 10.2556 8.14286 9.0625C8.14286 8.15629 7.5342 7.50892 6.79609 7.25H7.14286H12.8571ZM13.8571 7.12622V6.25V4.375C13.8571 3.41165 13.4477 2.58156 12.8065 1.97187C13.5572 2.60315 14 3.47389 14 4.375V6.25V7.12622C13.9762 7.12541 13.9524 7.125 13.9286 7.125C13.9048 7.125 13.881 7.12541 13.8571 7.12622ZM6 4.375C6 3.47389 6.44276 2.60316 7.19351 1.97187C6.55231 2.58157 6.14286 3.41165 6.14286 4.375V6.25V7.12622C6.11904 7.12541 6.09522 7.125 6.07143 7.125C6.04764 7.125 6.02382 7.12541 6 7.12622V6.25V4.375Z" stroke="white" stroke-width="2"/>
</svg>
