<svg width="30" height="8" viewBox="0 0 30 8" fill="none" xmlns="http://www.w3.org/2000/svg">
<path d="M7.77778 4.25797C7.77778 6.32295 6.03472 8.00032 3.88889 8.00032C1.74306 8.00032 0 6.32295 0 4.25797C0 2.193 1.74306 0.515625 3.88889 0.515625C6.03472 0.515625 7.77778 2.193 7.77778 4.25797ZM18.8889 4.25797C18.8889 6.32295 17.1458 8.00032 15 8.00032C12.8542 8.00032 11.1111 6.32295 11.1111 4.25797C11.1111 2.193 12.8542 0.515625 15 0.515625C17.1458 0.515625 18.8889 2.193 18.8889 4.25797ZM26.1111 8.00032C23.9653 8.00032 22.2222 6.32295 22.2222 4.25797C22.2222 2.193 23.9653 0.515625 26.1111 0.515625C28.2569 0.515625 30 2.193 30 4.25797C30 6.32295 28.2569 8.00032 26.1111 8.00032Z" fill="white"/>
</svg>
