<svg width="30" height="31" viewBox="0 0 30 31" fill="none" xmlns="http://www.w3.org/2000/svg">
<path opacity="0.3" d="M0 3.44405C0 2.06626 0.957589 0.953125 2.14286 0.953125H27.8571C29.0424 0.953125 30 2.06626 30 3.44405C30 4.82185 29.0424 5.93498 27.8571 5.93498H2.14286C0.957589 5.93498 0 4.82185 0 3.44405ZM0 15.8987C0 14.5209 0.957589 13.4078 2.14286 13.4078H27.8571C29.0424 13.4078 30 14.5209 30 15.8987C30 17.2765 29.0424 18.3896 27.8571 18.3896H2.14286C0.957589 18.3896 0 17.2765 0 15.8987ZM30 28.3533C30 29.7311 29.0424 30.8443 27.8571 30.8443H2.14286C0.957589 30.8443 0 29.7311 0 28.3533C0 26.9755 0.957589 25.8624 2.14286 25.8624H27.8571C29.0424 25.8624 30 26.9755 30 28.3533Z" fill="white"/>
</svg>
